{"title":"Beyond the Mask(2015)MPEG-4[DaScubaDude]","uid":15475515,"size":1053557812,"categoryP":"video","categoryS":"movies","magnet":"?xt=urn:btih:28b893e0bb8b5fff88dfa8edd4e80b9129421fc7&amp;dn=Beyond+the+Mask%282015%29MPEG-4%5BDaScubaDude%5D&amp;tr=udp%3A%2F%2Ftracker.leechers-paradise.org%3A6969&amp;tr=udp%3A%2F%2Fzer0day.ch%3A1337&amp;tr=udp%3A%2F%2Fopen.demonii.com%3A1337&amp;tr=udp%3A%2F%2Ftracker.coppersurfer.tk%3A6969&amp;tr=udp%3A%2F%2Fexodus.desync.com%3A6969","seeders":0,"leechers":1,"uploader":"dascuba","files":1,"time":1470184461,"description":"Beyond the Mask (2015)\r\nPG | 1h 43min | Action, Drama | 6 April 2015 (USA)\r\nA British East India Trading Company assassin seeks to redeem his past by thwarting a plot against a young nation's hope for freedom.\r\nDirector: Chad Burns\r\nWriters: Paul McCusker (screenplay), Stephen Kendrick (with) | \r\nStars: Andrew Cheney, John Rhys-Davies, Kara Killmer |\r\n\r\nGeneral\r\nComplete name                            : Beyond the MaskBeyond the Mask_Title11.mp4\r\nFormat                                   : MPEG-4\r\nFormat profile                           : Base Media\r\nCodec ID                                 : isom (isom/iso2/avc1/mp41)\r\nFile size                                : 1 005 MiB\r\nDuration                                 : 1h 44mn\r\nOverall bit rate                         : 1 342 Kbps\r\nMovie name                               : Beyond_the_Mask\r\nGenre                                    : Action\r\nWriting application                      : Lavf54.6.100\r\n\r\nVideo\r\nID                                       : 1\r\nFormat                                   : AVC\r\nFormat/Info                              : Advanced Video Codec\r\nFormat profile                           :   \r\nFormat settings, CABAC                   : No\r\nFormat settings, ReFrames                : 6 frames\r\nCodec ID                                 : avc1\r\nCodec ID/Info                            : Advanced Video Coding\r\nDuration                                 : 1h 44mn\r\nBit rate                                 : 1 206 Kbps\r\nWidth                                    : 720 pixels\r\nHeight                                   : 404 pixels\r\nDisplay aspect ratio                     : 16:9\r\nFrame rate mode                          : Constant\r\nFrame rate                               : 29.970 (30000/1001) fps\r\nColor space                              : YUV\r\nChroma subsampling                       : 4:2:0\r\nBit depth                                : 8 bits\r\nScan type                                : Progressive\r\nBits/(Pixel*Frame)                       : 0.138\r\nStream size                              : 903 MiB (90%)\r\n\r\nAudio\r\nID                                       : 2\r\nFormat                                   : AAC\r\nFormat/Info                              : Advanced Audio Codec\r\nFormat profile                           : LC\r\nCodec ID                                 : 40\r\nDuration                                 : 1h 44mn\r\nBit rate mode                            : Constant\r\nBit rate                                 : 129 Kbps\r\nChannel(s)                               : 2 channels\r\nChannel positions                        : Front: L R\r\nSampling rate                            : 44.1 KHz\r\nFrame rate                               : 43.066 fps (1024 spf)\r\nCompression mode                         : Lossy\r\nStream size                              : 96.6 MiB (10%)\r\nDefault                                  : Yes\r\nAlternate group                          : 1","torrent":{"xt":"urn:btih:28b893e0bb8b5fff88dfa8edd4e80b9129421fc7","amp;dn":"Beyond+the+Mask%282015%29MPEG-4%5BDaScubaDude%5D","amp;tr":["udp%3A%2F%2Ftracker.leechers-paradise.org%3A6969","udp%3A%2F%2Fzer0day.ch%3A1337","udp%3A%2F%2Fopen.demonii.com%3A1337","udp%3A%2F%2Ftracker.coppersurfer.tk%3A6969","udp%3A%2F%2Fexodus.desync.com%3A6969"],"infoHash":"28b893e0bb8b5fff88dfa8edd4e80b9129421fc7","infoHashBuffer":{"type":"Buffer","data":[40,184,147,224,187,139,95,255,136,223,168,237,212,232,11,145,41,66,31,199]},"announce":[],"urlList":[]}}